<svg width="24" height="24" viewBox="0 0 24 24" fill="none" xmlns="http://www.w3.org/2000/svg">
<path d="M13.9997 2H6.00053C5.47015 2 4.9615 2.21073 4.58646 2.58584C4.21142 2.96094 4.00073 3.46969 4.00073 4.00016V20.0014C4.00073 20.5319 4.21142 21.0407 4.58646 21.4158C4.9615 21.7909 5.47015 22.0016 6.00053 22.0016H17.9993C18.5297 22.0016 19.0384 21.7909 19.4134 21.4158C19.7884 21.0407 19.9991 20.5319 19.9991 20.0014V8.00048M13.9997 2C14.3163 1.99949 14.6297 2.06161 14.9222 2.18279C15.2146 2.30396 15.4801 2.4818 15.7036 2.70606L19.2912 6.29435C19.516 6.51787 19.6943 6.78373 19.8158 7.07657C19.9373 7.36941 19.9996 7.68343 19.9991 8.00048M13.9997 2V7.0004C13.9997 7.26564 14.1051 7.52001 14.2926 7.70756C14.4801 7.89511 14.7344 8.00048 14.9996 8.00048L19.9991 8.00048M10.0001 9.00056H8.00033M15.9995 13.0009H8.00033M15.9995 17.0012H8.00033" stroke="#2094E3" stroke-width="2" stroke-linecap="round"/>
</svg>
